
General

Complete name                    : WWE.Superstars.2011.11.17.720p.HD.x264-MM-Snaw90.mp4
Format                           : MP4
File size                        : 1.13 GiB
Duration                         : 38mn 51s


Video

Format                           : AVC
Format/Info                      : Advanced Video Codec
Duration                         : 38mn 51s
Bit rate                         : 4000 Kbps
Width                            : 1280 pixels
Height                           : 720 pixels
Display aspect ratio             : 16:9
Frame rate                       : 30.000 fps
Standard                         : NTSC
Bit depth                        : 8 bits
Stream size                      : 1.09 GiB 
Language                         : English


Audio

Format                           : AAC
Format profile                   : LC
Duration                         : 38mn 51s
Bit rate mode                    : Variable
Bit rate                         : 158 Kbps
Maximum bit rate                 : 355 Kbps
Channel(s)                       : 2 channels
Stream size                      : 43.8 MiB 
Language                         : English
